<svg width="1512" height="982" viewBox="0 0 1512 982" fill="none" xmlns="http://www.w3.org/2000/svg">
<rect width="1512" height="982" fill="#134FEC"/>
<path d="M516.154 356.321L541.738 323.704L970.769 657.522L945.441 690.338L821.505 593.906L769.396 660.878C750.664 684.916 723.158 700.537 692.919 704.311C662.679 708.085 632.177 699.704 608.112 681.009C584.074 662.277 568.453 634.771 564.679 604.531C560.905 574.291 569.286 543.79 587.982 519.724L617.73 481.491C619.836 500.226 625.137 518.562 633.774 535.787L624.39 547.847C618.784 554.971 614.647 563.137 612.219 571.871C609.79 580.604 609.117 589.733 610.24 598.729C611.363 607.724 614.258 616.408 618.759 624.277C623.261 632.146 629.278 639.044 636.462 644.572C643.587 650.177 651.752 654.314 660.486 656.743C669.22 659.172 678.349 659.844 687.344 658.722C696.34 657.599 705.023 654.703 712.892 650.202C720.761 645.701 727.659 639.684 733.187 632.499L785.553 565.727L744.013 533.612C744.468 539.115 742.898 545.103 739.333 549.95C731.547 559.957 716.947 561.779 706.939 553.993C694.119 544.036 683.565 531.462 675.981 517.109C668.398 502.756 663.958 486.952 662.956 470.75L516.154 356.321ZM757.486 301.873C776.218 277.836 803.724 262.215 833.963 258.441C864.203 254.666 894.705 263.047 918.77 281.743C942.808 300.475 958.429 327.981 962.203 358.221C965.977 388.46 957.596 418.962 938.9 443.027L909.152 481.26C907.046 462.526 901.745 444.189 893.137 427.193L902.492 414.905C908.098 407.78 912.235 399.615 914.663 390.881C917.092 382.147 917.765 373.018 916.642 364.023C915.519 355.027 912.624 346.344 908.123 338.475C903.621 330.606 897.604 323.708 890.42 318.18C883.295 312.574 875.13 308.437 866.396 306.009C857.662 303.58 848.533 302.907 839.538 304.03C830.542 305.153 821.859 308.048 813.99 312.55C806.121 317.051 799.223 323.068 793.695 330.252L727.211 415.699L691.002 387.32L757.486 301.873ZM787.549 412.802C795.335 402.795 809.935 400.972 819.942 408.759C836.622 421.713 849.409 439.012 856.901 458.757C864.392 478.502 866.298 499.93 862.409 520.688L816.763 485.378C813.686 470.008 805.163 455.549 791.592 445.196C789.117 443.396 787.038 441.108 785.483 438.473C783.928 435.837 782.93 432.911 782.551 429.875C782.172 426.839 782.42 423.757 783.28 420.82C784.139 417.884 785.592 415.155 787.549 412.802Z" fill="white" fill-opacity="0.08"/>
<circle cx="193" cy="420" r="11" fill="white" fill-opacity="0.15"/>
<circle cx="347" cy="447" r="5" fill="white" fill-opacity="0.15"/>
<circle cx="1270.5" cy="470.5" r="7.5" fill="white" fill-opacity="0.15"/>
<circle cx="1113.5" cy="495.5" r="3.5" fill="white" fill-opacity="0.78"/>
<circle cx="1318" cy="334" r="7" fill="white" fill-opacity="0.9"/>
<circle cx="1210" cy="378" r="7" fill="white" fill-opacity="0.15"/>
<circle cx="300" cy="324" r="6" fill="white" fill-opacity="0.63"/>
<path d="M1117.94 357.061C1119.41 355.6 1121.39 354.78 1123.46 354.781C1125.52 354.782 1127.5 355.603 1128.97 357.065C1130.43 358.527 1131.25 360.51 1131.25 362.577C1131.25 364.644 1130.42 366.626 1128.96 368.087C1128.24 368.81 1127.38 369.384 1126.43 369.775C1125.49 370.167 1124.47 370.368 1123.45 370.367C1121.38 370.367 1119.4 369.545 1117.94 368.083C1116.48 366.621 1115.66 364.638 1115.66 362.571C1115.66 360.504 1116.48 358.522 1117.94 357.061ZM1126.2 359.823C1125.85 359.447 1125.42 359.147 1124.94 358.94C1124.47 358.732 1123.95 358.622 1123.44 358.616C1122.92 358.609 1122.4 358.707 1121.92 358.902C1121.44 359.098 1121 359.387 1120.64 359.754C1120.27 360.12 1119.98 360.557 1119.78 361.037C1119.59 361.517 1119.49 362.032 1119.5 362.551C1119.5 363.069 1119.61 363.582 1119.82 364.058C1120.02 364.533 1120.32 364.963 1120.7 365.322C1121.43 366.024 1122.41 366.411 1123.43 366.4C1124.45 366.389 1125.42 365.98 1126.14 365.262C1126.86 364.544 1127.27 363.572 1127.28 362.556C1127.29 361.54 1126.91 360.559 1126.2 359.823ZM1121.82 388.566C1120.73 389.083 1119.51 389.25 1118.32 389.044C1117.13 388.838 1116.03 388.269 1115.18 387.415L1112.8 385.04L1109.95 389.798C1109.79 390.053 1109.59 390.269 1109.34 390.432C1109.09 390.594 1108.81 390.697 1108.51 390.733C1108.22 390.77 1107.92 390.739 1107.64 390.642C1107.36 390.546 1107.1 390.386 1106.89 390.176L1095.85 379.135C1095.65 378.926 1095.49 378.672 1095.39 378.392C1095.29 378.112 1095.26 377.813 1095.3 377.519C1095.33 377.225 1095.44 376.943 1095.6 376.695C1095.76 376.447 1095.98 376.238 1096.23 376.086L1100.99 373.231L1098.61 370.852C1097.76 369.998 1097.19 368.902 1096.98 367.713C1096.78 366.524 1096.94 365.3 1097.46 364.21L1093.09 359.842C1092.73 359.476 1092.52 358.981 1092.52 358.463C1092.52 357.946 1092.73 357.451 1093.09 357.085L1097.23 352.951C1098.94 351.24 1101.14 350.101 1103.52 349.69C1105.9 349.279 1108.35 349.615 1110.54 350.654L1114.19 346.999C1117.36 343.83 1121.34 341.589 1125.69 340.519C1130.04 339.449 1134.6 339.59 1138.88 340.927C1140.34 341.385 1141.67 342.189 1142.75 343.273C1143.84 344.356 1144.64 345.685 1145.1 347.148C1147.83 355.864 1145.49 365.376 1139.03 371.835L1135.37 375.493C1136.41 377.677 1136.75 380.129 1136.34 382.513C1135.93 384.896 1134.79 387.093 1133.08 388.804L1128.94 392.938C1128.58 393.303 1128.08 393.508 1127.56 393.508C1127.05 393.508 1126.55 393.303 1126.19 392.938L1121.82 388.57L1121.82 388.566ZM1137.72 344.652C1134.12 343.525 1130.28 343.406 1126.62 344.306C1122.96 345.206 1119.62 347.091 1116.95 349.757L1113.77 352.935L1113.78 352.951L1111.03 355.708L1111.01 355.693L1102.74 363.968L1102.75 363.984L1101.18 365.556C1100.9 365.931 1100.77 366.394 1100.8 366.86C1100.84 367.326 1101.04 367.764 1101.37 368.095L1117.93 384.658C1118.26 384.989 1118.7 385.191 1119.17 385.224C1119.64 385.258 1120.1 385.122 1120.48 384.841L1122.04 383.277L1122.06 383.293L1130.33 375.017L1130.32 375.001L1133.08 372.244L1133.09 372.26L1136.27 369.077C1138.94 366.412 1140.82 363.068 1141.72 359.407C1142.62 355.746 1142.51 351.908 1141.38 348.31C1141.11 347.449 1140.64 346.667 1140 346.03C1139.36 345.393 1138.58 344.92 1137.72 344.652ZM1124.82 386.05L1127.57 388.8L1130.32 386.042C1131.29 385.076 1131.98 383.871 1132.34 382.55C1132.7 381.229 1132.7 379.838 1132.35 378.515L1124.82 386.05ZM1107.51 353.68C1106.19 353.329 1104.8 353.332 1103.48 353.688C1102.16 354.044 1100.95 354.741 1099.99 355.708L1097.23 358.465L1099.98 361.211L1107.51 353.68ZM1109.96 382.197L1103.83 376.074L1100.38 378.141L1107.89 385.652L1109.96 382.197ZM1098.63 390.153C1098.82 389.975 1098.98 389.759 1099.08 389.52C1099.19 389.28 1099.25 389.021 1099.26 388.758C1099.26 388.495 1099.21 388.234 1099.11 387.99C1099.02 387.746 1098.87 387.525 1098.68 387.339C1098.5 387.154 1098.28 387.007 1098.03 386.909C1097.79 386.811 1097.53 386.764 1097.26 386.77C1097 386.775 1096.74 386.834 1096.5 386.942C1096.26 387.05 1096.05 387.206 1095.87 387.4L1088.98 394.295C1088.79 394.475 1088.64 394.69 1088.54 394.928C1088.44 395.166 1088.38 395.421 1088.38 395.68C1088.38 395.939 1088.43 396.196 1088.53 396.436C1088.62 396.675 1088.77 396.893 1088.95 397.076C1089.13 397.259 1089.35 397.404 1089.59 397.502C1089.83 397.6 1090.09 397.65 1090.35 397.647C1090.61 397.645 1090.86 397.591 1091.1 397.489C1091.34 397.387 1091.55 397.238 1091.73 397.052L1098.63 390.153ZM1093.11 381.881C1093.47 382.247 1093.68 382.743 1093.68 383.26C1093.68 383.777 1093.47 384.273 1093.11 384.638L1090.34 387.403C1089.98 387.769 1089.48 387.974 1088.96 387.974C1088.45 387.974 1087.95 387.768 1087.58 387.401C1087.22 387.035 1087.01 386.539 1087.01 386.021C1087.01 385.504 1087.22 385.008 1087.59 384.642L1090.35 381.881C1090.72 381.515 1091.21 381.31 1091.73 381.31C1092.25 381.31 1092.74 381.515 1093.11 381.881ZM1104.15 395.675C1104.49 395.305 1104.67 394.818 1104.66 394.315C1104.65 393.812 1104.45 393.332 1104.09 392.976C1103.74 392.62 1103.26 392.415 1102.75 392.404C1102.25 392.393 1101.76 392.578 1101.39 392.918L1098.62 395.683C1098.26 396.049 1098.05 396.546 1098.05 397.063C1098.05 397.581 1098.26 398.077 1098.63 398.442C1098.99 398.808 1099.49 399.013 1100.01 399.013C1100.52 399.012 1101.02 398.807 1101.39 398.44L1104.15 395.675Z" fill="white" fill-opacity="0.76"/>
<path d="M412.57 373.227C412.45 372.837 412.206 372.497 411.877 372.256C411.548 372.016 411.15 371.887 410.742 371.891L410.227 371.984C406.87 372.911 403.327 372.93 399.96 372.041C396.593 371.151 393.522 369.385 391.061 366.921C388.599 364.457 386.835 361.385 385.949 358.017C385.063 354.649 385.086 351.106 386.016 347.75C386.062 347.614 386.085 347.472 386.086 347.328C386.108 347.026 386.056 346.722 385.933 346.445C385.811 346.167 385.622 345.924 385.384 345.737C385.146 345.549 384.865 345.423 384.566 345.37C384.268 345.316 383.961 345.337 383.672 345.43C379.732 346.534 376.149 348.651 373.281 351.57C370.413 354.488 368.359 358.107 367.323 362.066C366.287 366.025 366.306 370.186 367.378 374.135C368.45 378.085 370.537 381.685 373.431 384.577C376.326 387.469 379.928 389.553 383.878 390.622C387.828 391.69 391.989 391.706 395.947 390.667C399.905 389.628 403.522 387.571 406.439 384.701C409.355 381.83 411.469 378.246 412.57 374.305C412.688 373.955 412.688 373.576 412.57 373.227ZM390 387.688C385.509 387.691 381.153 386.159 377.652 383.347C374.152 380.534 371.718 376.609 370.755 372.223C369.792 367.836 370.357 363.253 372.357 359.232C374.357 355.212 377.671 351.995 381.75 350.117C381.309 353.654 381.681 357.246 382.838 360.617C383.995 363.989 385.907 367.052 388.428 369.572C390.948 372.093 394.011 374.005 397.383 375.162C400.754 376.319 404.346 376.691 407.883 376.25C406.297 379.659 403.773 382.545 400.606 384.571C397.438 386.596 393.76 387.677 390 387.688Z" fill="white" fill-opacity="0.74"/>
</svg>
