<svg width="1512" height="500" viewBox="0 0 1512 500" fill="none" xmlns="http://www.w3.org/2000/svg">
<rect width="1512" height="500" fill="#134FEC"/>
<mask id="mask0_1_35" style="mask-type:alpha" maskUnits="userSpaceOnUse" x="0" y="0" width="1512" height="500">
<rect width="1512" height="500" fill="#134FEC"/>
</mask>
<g mask="url(#mask0_1_35)">
<path d="M832.576 108.014C893.506 140.27 916.815 216.017 884.559 276.947L809.108 419.474L876.808 455.314L952.26 312.787C1004.32 214.443 966.758 92.3754 868.415 40.314C770.071 -11.7473 648.003 25.8151 595.942 124.159L520.491 266.686L588.191 302.525L663.642 159.998C695.898 99.0678 771.645 75.759 832.576 108.014ZM719.606 235.242L568.704 520.296L639.967 558.021L790.87 272.967L719.606 235.242ZM763.632 669.104L839.083 526.577L771.382 490.738L695.931 633.265C663.676 694.195 587.928 717.504 526.998 685.249C466.068 652.993 442.759 577.246 475.014 516.316L550.466 373.789L482.765 337.949L407.314 480.476C355.253 578.82 392.815 700.888 491.159 752.949C589.502 805.01 711.57 767.448 763.632 669.104Z" fill="#F3F3F3" fill-opacity="0.08"/>
</g>
<circle cx="193" cy="244" r="11" fill="white" fill-opacity="0.15"/>
<circle cx="347" cy="271" r="5" fill="white" fill-opacity="0.15"/>
<circle cx="1289.5" cy="300.5" r="7.5" fill="white" fill-opacity="0.15"/>
<circle cx="1132.5" cy="325.5" r="3.5" fill="white" fill-opacity="0.78"/>
<circle cx="1337" cy="164" r="7" fill="white" fill-opacity="0.9"/>
<circle cx="1229" cy="208" r="7" fill="white" fill-opacity="0.15"/>
<circle cx="300" cy="148" r="6" fill="white" fill-opacity="0.63"/>
<path d="M1136.94 187.061C1138.41 185.6 1140.39 184.78 1142.46 184.781C1144.52 184.781 1146.5 185.603 1147.97 187.065C1149.43 188.527 1150.25 190.51 1150.25 192.577C1150.25 194.644 1149.42 196.626 1147.96 198.087C1147.24 198.81 1146.38 199.384 1145.43 199.775C1144.49 200.166 1143.47 200.368 1142.45 200.367C1140.38 200.367 1138.4 199.545 1136.94 198.083C1135.48 196.621 1134.66 194.638 1134.66 192.571C1134.66 190.504 1135.48 188.522 1136.94 187.061ZM1145.2 189.823C1144.85 189.447 1144.42 189.147 1143.94 188.94C1143.47 188.732 1142.95 188.622 1142.44 188.616C1141.92 188.609 1141.4 188.707 1140.92 188.902C1140.44 189.098 1140 189.387 1139.64 189.754C1139.27 190.12 1138.98 190.556 1138.78 191.037C1138.59 191.517 1138.49 192.032 1138.5 192.55C1138.5 193.069 1138.61 193.582 1138.82 194.057C1139.02 194.533 1139.32 194.963 1139.7 195.322C1140.43 196.024 1141.41 196.411 1142.43 196.4C1143.45 196.389 1144.42 195.98 1145.14 195.262C1145.86 194.544 1146.27 193.572 1146.28 192.556C1146.29 191.54 1145.91 190.558 1145.2 189.823ZM1140.82 218.566C1139.73 219.083 1138.51 219.25 1137.32 219.044C1136.13 218.838 1135.03 218.269 1134.18 217.415L1131.8 215.04L1128.95 219.798C1128.79 220.053 1128.59 220.269 1128.34 220.432C1128.09 220.594 1127.81 220.697 1127.51 220.733C1127.22 220.77 1126.92 220.739 1126.64 220.642C1126.36 220.546 1126.1 220.386 1125.89 220.176L1114.85 209.135C1114.65 208.926 1114.49 208.672 1114.39 208.392C1114.29 208.111 1114.26 207.813 1114.3 207.519C1114.33 207.225 1114.44 206.943 1114.6 206.695C1114.76 206.447 1114.98 206.238 1115.23 206.086L1119.99 203.231L1117.61 200.852C1116.76 199.998 1116.19 198.902 1115.98 197.713C1115.78 196.524 1115.94 195.3 1116.46 194.21L1112.09 189.842C1111.73 189.476 1111.52 188.981 1111.52 188.463C1111.52 187.946 1111.73 187.45 1112.09 187.085L1116.23 182.951C1117.94 181.24 1120.14 180.101 1122.52 179.69C1124.9 179.279 1127.35 179.615 1129.54 180.654L1133.19 176.999C1136.36 173.83 1140.34 171.589 1144.69 170.519C1149.04 169.449 1153.6 169.59 1157.88 170.927C1159.34 171.384 1160.67 172.189 1161.75 173.273C1162.84 174.356 1163.64 175.685 1164.1 177.148C1166.83 185.864 1164.49 195.376 1158.03 201.835L1154.37 205.493C1155.41 207.677 1155.75 210.129 1155.34 212.513C1154.93 214.896 1153.79 217.093 1152.08 218.803L1147.94 222.938C1147.58 223.303 1147.08 223.508 1146.56 223.508C1146.05 223.508 1145.55 223.303 1145.19 222.938L1140.82 218.569L1140.82 218.566ZM1156.72 174.652C1153.12 173.525 1149.28 173.406 1145.62 174.306C1141.96 175.206 1138.62 177.091 1135.95 179.757L1132.77 182.935L1132.78 182.951L1130.03 185.708L1130.01 185.693L1121.74 193.968L1121.75 193.984L1120.18 195.556C1119.9 195.931 1119.77 196.394 1119.8 196.86C1119.84 197.326 1120.04 197.764 1120.37 198.095L1136.93 214.658C1137.26 214.989 1137.7 215.191 1138.17 215.224C1138.64 215.258 1139.1 215.122 1139.48 214.841L1141.04 213.277L1141.06 213.293L1149.33 205.017L1149.32 205.001L1152.08 202.244L1152.09 202.26L1155.27 199.077C1157.94 196.412 1159.82 193.068 1160.72 189.407C1161.62 185.746 1161.51 181.908 1160.38 178.31C1160.11 177.449 1159.64 176.667 1159 176.03C1158.36 175.393 1157.58 174.92 1156.72 174.652ZM1143.82 216.05L1146.57 218.8L1149.32 216.042C1150.29 215.076 1150.98 213.871 1151.34 212.55C1151.7 211.229 1151.7 209.838 1151.35 208.515L1143.82 216.05ZM1126.51 183.68C1125.19 183.329 1123.8 183.332 1122.48 183.688C1121.16 184.044 1119.95 184.741 1118.99 185.708L1116.23 188.465L1118.98 191.211L1126.51 183.68ZM1128.96 212.197L1122.83 206.074L1119.38 208.141L1126.89 215.652L1128.96 212.197ZM1117.63 220.153C1117.82 219.975 1117.98 219.759 1118.08 219.52C1118.19 219.28 1118.25 219.021 1118.26 218.758C1118.26 218.495 1118.21 218.234 1118.11 217.99C1118.02 217.746 1117.87 217.525 1117.68 217.339C1117.5 217.153 1117.28 217.007 1117.03 216.909C1116.79 216.811 1116.53 216.764 1116.26 216.77C1116 216.775 1115.74 216.834 1115.5 216.942C1115.26 217.05 1115.05 217.206 1114.87 217.399L1107.98 224.295C1107.79 224.475 1107.64 224.69 1107.54 224.928C1107.44 225.166 1107.38 225.421 1107.38 225.68C1107.38 225.939 1107.43 226.196 1107.53 226.436C1107.62 226.675 1107.77 226.893 1107.95 227.076C1108.13 227.259 1108.35 227.404 1108.59 227.502C1108.83 227.6 1109.09 227.649 1109.35 227.647C1109.61 227.645 1109.86 227.591 1110.1 227.489C1110.34 227.387 1110.55 227.238 1110.73 227.052L1117.63 220.153ZM1112.11 211.881C1112.47 212.247 1112.68 212.743 1112.68 213.26C1112.68 213.777 1112.47 214.273 1112.11 214.638L1109.34 217.403C1108.98 217.769 1108.48 217.974 1107.96 217.974C1107.45 217.974 1106.95 217.768 1106.58 217.401C1106.22 217.035 1106.01 216.539 1106.01 216.021C1106.01 215.504 1106.22 215.008 1106.59 214.642L1109.35 211.881C1109.72 211.515 1110.21 211.31 1110.73 211.31C1111.25 211.31 1111.74 211.515 1112.11 211.881ZM1123.15 225.675C1123.49 225.305 1123.67 224.818 1123.66 224.315C1123.65 223.812 1123.45 223.332 1123.09 222.976C1122.74 222.62 1122.26 222.415 1121.75 222.404C1121.25 222.393 1120.76 222.577 1120.39 222.918L1117.62 225.683C1117.26 226.049 1117.05 226.546 1117.05 227.063C1117.05 227.581 1117.26 228.077 1117.63 228.442C1117.99 228.808 1118.49 229.013 1119.01 229.013C1119.52 229.012 1120.02 228.807 1120.39 228.44L1123.15 225.675Z" fill="white" fill-opacity="0.76"/>
<path d="M412.57 197.227C412.45 196.837 412.206 196.497 411.877 196.256C411.548 196.016 411.15 195.887 410.742 195.891L410.227 195.984C406.87 196.911 403.327 196.93 399.96 196.041C396.593 195.151 393.522 193.385 391.061 190.921C388.599 188.457 386.835 185.385 385.949 182.017C385.063 178.649 385.086 175.106 386.016 171.75C386.062 171.614 386.085 171.472 386.086 171.328C386.108 171.026 386.056 170.722 385.933 170.445C385.811 170.167 385.622 169.924 385.384 169.737C385.146 169.549 384.865 169.423 384.566 169.37C384.268 169.316 383.961 169.337 383.672 169.43C379.732 170.534 376.149 172.651 373.281 175.57C370.413 178.488 368.359 182.107 367.323 186.066C366.287 190.025 366.306 194.186 367.378 198.135C368.45 202.085 370.537 205.685 373.431 208.577C376.326 211.469 379.928 213.553 383.878 214.622C387.828 215.69 391.989 215.706 395.947 214.667C399.905 213.628 403.522 211.571 406.439 208.701C409.355 205.83 411.469 202.246 412.57 198.305C412.688 197.955 412.688 197.576 412.57 197.227ZM390 211.687C385.509 211.691 381.153 210.159 377.652 207.347C374.152 204.534 371.718 200.609 370.755 196.223C369.792 191.836 370.357 187.253 372.357 183.232C374.357 179.212 377.671 175.995 381.75 174.117C381.309 177.654 381.681 181.246 382.838 184.617C383.995 187.989 385.907 191.052 388.428 193.572C390.948 196.093 394.011 198.005 397.383 199.162C400.754 200.319 404.346 200.691 407.883 200.25C406.297 203.659 403.773 206.545 400.606 208.571C397.438 210.596 393.76 211.677 390 211.687Z" fill="white" fill-opacity="0.74"/>
</svg>
