<svg width="40" height="40" viewBox="0 0 40 40" fill="none" xmlns="http://www.w3.org/2000/svg">
<path d="M35.5556 0H4.44444C3.2657 0 2.13524 0.468252 1.30175 1.30175C0.468252 2.13524 0 3.2657 0 4.44444V35.5556C0 36.7343 0.468252 37.8648 1.30175 38.6983C2.13524 39.5317 3.2657 40 4.44444 40H35.5556C36.7343 40 37.8648 39.5317 38.6983 38.6983C39.5317 37.8648 40 36.7343 40 35.5556V4.44444C40 3.2657 39.5317 2.13524 38.6983 1.30175C37.8648 0.468252 36.7343 0 35.5556 0ZM24.3111 26.2444L19.4 31.1111C17.9556 32.6 16.0444 33.3333 14.1333 33.3333C12.2222 33.3333 10.3111 32.6 8.88889 31.1111C5.93333 28.2444 5.93333 23.5111 8.88889 20.5778L11.8889 17.5556L11.8667 18.8889C11.8444 20 12.0222 21.1111 12.3778 22.0889L12.4889 22.4222L11.6 23.3333C11.2632 23.6637 10.9957 24.0579 10.8131 24.4929C10.6305 24.9279 10.5364 25.3949 10.5364 25.8667C10.5364 26.3384 10.6305 26.8055 10.8131 27.2404C10.9957 27.6754 11.2632 28.0696 11.6 28.4C12.9556 29.7778 15.3111 29.7778 16.6667 28.4L21.5556 23.5333C22.2222 22.8444 22.6222 21.9333 22.6222 20.9778C22.6222 20 22.2222 19.1333 21.5556 18.4444C21.3728 18.2645 21.2277 18.0501 21.1286 17.8135C21.0295 17.577 20.9785 17.3231 20.9785 17.0667C20.9785 16.8102 21.0295 16.5563 21.1286 16.3198C21.2277 16.0833 21.3728 15.8688 21.5556 15.6889C22.2889 14.9556 23.5778 14.9778 24.3111 15.6889C25.7111 17.1111 26.4889 18.9778 26.4889 20.9778C26.4889 22.9778 25.7111 24.8444 24.3111 26.2444ZM31.1111 19.4222L28.1333 22.4444V21.1111C28.1556 20 27.9778 18.8889 27.6222 17.9111L27.5111 17.6L28.4 16.6667C28.7368 16.3363 29.0043 15.9421 29.1869 15.5071C29.3695 15.0721 29.4636 14.6051 29.4636 14.1333C29.4636 13.6616 29.3695 13.1945 29.1869 12.7596C29.0043 12.3246 28.7368 11.9304 28.4 11.6C27.0444 10.2222 24.6667 10.2444 23.3333 11.6L18.4444 16.4889C17.7778 17.1556 17.3778 18.0667 17.3778 19.0222C17.3778 20 17.7778 20.8667 18.4444 21.5556C18.8222 21.9111 19.0222 22.4 19.0222 22.9333C19.0222 23.4667 18.8222 23.9556 18.4444 24.3111C18.2635 24.491 18.0484 24.6328 17.8117 24.7282C17.5751 24.8237 17.3218 24.8707 17.0667 24.8667C16.5778 24.8667 16.0667 24.6889 15.6889 24.3111C14.2909 22.9104 13.5057 21.0123 13.5057 19.0333C13.5057 17.0544 14.2909 15.1562 15.6889 13.7556L20.6 8.88889C21.2851 8.18969 22.1028 7.63422 23.0052 7.25502C23.9076 6.87581 24.8767 6.68048 25.8556 6.68048C26.8344 6.68048 27.8035 6.87581 28.7059 7.25502C29.6083 7.63422 30.426 8.18969 31.1111 8.88889C32.5556 10.2667 33.3333 12.1333 33.3333 14.1333C33.3333 16.1333 32.5556 18 31.1111 19.4222Z" fill="#3ED078"/>
</svg>
